<svg width="40" height="40" viewBox="0 0 40 40" fill="none" xmlns="http://www.w3.org/2000/svg">
<rect x="0.00332642" y="-0.00335693" width="40.0033" height="40.0033" rx="6.66667" fill="#7E4FED"/>
<path d="M32.9882 11.0301C33.0387 10.7207 32.925 10.4072 32.6893 10.206C32.4536 10.0048 32.1312 9.94607 31.8418 10.0515L7.57518 18.8977C7.24823 19.0169 7.02251 19.3237 7.00158 19.6775C6.98066 20.0312 7.16856 20.3635 7.47909 20.522L14.4124 24.0605C14.6906 24.2024 15.022 24.1814 15.2807 24.0053L21.0361 20.0889L17.5899 24.4858C17.4382 24.6795 17.373 24.9292 17.4103 25.1742C17.4475 25.4192 17.5838 25.637 17.7859 25.7745L23.8526 32.8514C24.0973 33.0179 24.408 33.0464 24.6778 32.9271C24.9477 32.8078 25.1398 32.5569 25.1882 32.2608L32.9882 11.0301Z" fill="white"/>
</svg>
